<svg fill="#fff" viewBox="0 0 430 109" xmlns="http://www.w3.org/2000/svg">
<path d="M409.68 43.8772V23.3113C409.681 22.9352 409.606 22.5626 409.46 22.215C409.314 21.8674 409.1 21.5516 408.83 21.2856C408.56 21.0196 408.239 20.8088 407.886 20.6652C407.533 20.5216 407.155 20.448 406.773 20.4487H381.586V46.7451H388.866V27.7571H402.399V46.7558H406.768C407.151 46.7565 407.531 46.6824 407.885 46.5379C408.24 46.3933 408.562 46.1812 408.832 45.9136C409.103 45.646 409.317 45.3283 409.463 44.9788C409.608 44.6293 409.682 44.2549 409.68 43.8772Z"/>
<path d="M420.462 20.4487V46.841H424.825C425.598 46.841 426.339 46.5389 426.885 46.0011C427.431 45.4632 427.738 44.7338 427.738 43.9731V23.3113C427.738 22.935 427.662 22.5623 427.516 22.2146C427.37 21.867 427.155 21.5512 426.884 21.2853C426.614 21.0194 426.293 20.8086 425.94 20.6651C425.586 20.5216 425.208 20.448 424.825 20.4487H420.462Z" />
<path d="M381.586 1.48779V8.65226H406.773C407.155 8.65297 407.533 8.57939 407.886 8.43578C408.239 8.29217 408.56 8.08134 408.83 7.81539C409.1 7.54943 409.314 7.23358 409.46 6.88596C409.606 6.53834 409.68 6.16579 409.68 5.78968V4.35572C409.68 3.97935 409.606 3.60654 409.46 3.25862C409.314 2.9107 409.1 2.59448 408.83 2.3281C408.56 2.06172 408.24 1.8504 407.887 1.70621C407.534 1.56202 407.155 1.48779 406.773 1.48779H381.586Z"/>
<path d="M424.12 -0.000121886L418.975 5.06592L424.12 10.132L429.264 5.06592L424.12 -0.000121886Z" />
<path d="M65.5789 52.2783V64.0059H104.337C105.629 64.0059 106.868 63.5004 107.782 62.6007C108.695 61.701 109.209 60.4807 109.209 59.2083V57.076C109.209 55.8036 108.695 54.5833 107.782 53.6835C106.868 52.7838 105.629 52.2783 104.337 52.2783H65.5789Z" />
<path d="M261.615 84.0869V95.9157H300.34C301.632 95.9157 302.871 95.4103 303.785 94.5106C304.699 93.6108 305.212 92.3905 305.212 91.1181V88.9059C305.212 87.6334 304.699 86.4132 303.785 85.5134C302.871 84.6137 301.632 84.1082 300.34 84.1082L261.615 84.0869Z" />
<path d="M261.615 20.1665V32.1926H300.34C301.632 32.1926 302.871 31.6871 303.785 30.7874C304.699 29.8876 305.212 28.6674 305.212 27.3949V24.9908C305.212 23.7184 304.699 22.4981 303.785 21.5984C302.871 20.6986 301.632 20.1932 300.34 20.1932L261.615 20.1665Z" />
<path d="M261.615 52.3054V64.0064H300.34C301.632 64.0064 302.871 63.5009 303.785 62.6012C304.699 61.7014 305.212 60.4811 305.212 59.2087V57.1457C305.212 55.8733 304.699 54.653 303.785 53.7533C302.871 52.8535 301.632 52.3481 300.34 52.3481L261.615 52.3054Z" />
<path d="M109.209 91.107V88.8948C109.209 87.6224 108.695 86.4021 107.782 85.5024C106.868 84.6026 105.629 84.0972 104.337 84.0972H65.5789V95.926H104.337C104.978 95.926 105.614 95.8012 106.206 95.5588C106.799 95.3163 107.337 94.961 107.789 94.5133C108.242 94.0655 108.6 93.5341 108.844 92.9496C109.087 92.365 109.211 91.7389 109.209 91.107Z" />
<path d="M65.5789 20.1665V32.2565H104.337C105.629 32.2565 106.868 31.7511 107.782 30.8513C108.695 29.9516 109.209 28.7313 109.209 27.4589V24.9961C109.209 23.7237 108.695 22.5034 107.782 21.6037C106.868 20.7039 105.629 20.1985 104.337 20.1985L65.5789 20.1665Z" />
<path d="M38.93 20.1555L0.26416 20.0916V32.2562H31.8443V52.3636H0.26416V95.9155H11.6317V64.0859H38.9192C40.2113 64.0859 41.4504 63.5804 42.3641 62.6807C43.2777 61.7809 43.791 60.5606 43.791 59.2882V24.9691C43.7931 24.3387 43.6691 23.714 43.4259 23.1307C43.1827 22.5475 42.8251 22.0172 42.3737 21.5701C41.9222 21.1231 41.3857 20.768 40.7948 20.5253C40.2039 20.2826 39.5703 20.1569 38.93 20.1555Z" />
<path d="M168.942 20.1665H130.926V32.2619H162.197V52.364H130.926V95.9158H141.866V64.3314H168.931C172.179 64.3314 174.345 62.1991 174.345 59.5337V24.9801C174.366 22.3201 172.179 20.1665 168.942 20.1665Z" />
<path d="M207.089 64.438H234.695C235.987 64.438 237.227 63.9325 238.14 63.0328C239.054 62.1331 239.567 60.9128 239.567 59.6404V25.0921C239.567 23.8197 239.054 22.5994 238.14 21.6996C237.227 20.7999 235.987 20.2944 234.695 20.2944H196.149V32.3205H227.961V52.4866H196.149V96.0384H207.089V64.438Z" />
<path d="M326.918 32.1923H358.314V52.3636H326.918V95.9102H338.632L338.524 64.0859H365.525C366.817 64.0859 368.056 63.5804 368.97 62.6807C369.883 61.7809 370.397 60.5606 370.397 59.2882L370.445 24.9212C370.445 23.6488 369.932 22.4285 369.018 21.5287C368.105 20.629 366.866 20.1235 365.573 20.1235H326.918V32.1923Z" />
<path d="M346.612 78.1428L364.567 95.9101L368.518 92.0187C369.134 91.4128 369.622 90.6935 369.955 89.9019C370.288 89.1103 370.459 88.2618 370.459 87.4049C370.459 86.5481 370.288 85.6996 369.955 84.908C369.622 84.1164 369.134 83.3971 368.518 82.7912L355.245 69.6404L346.612 78.1428Z" />
<path d="M413 92.0506C413 100.366 406.281 107.101 398 107.101C389.719 107.101 383 100.366 383 92.0506C383 83.7354 389.719 77 398 77C406.281 77 413 83.7354 413 92.0506Z" fill="none" stroke="#fff" stroke-width="2"/>
<path d="M402.313 85.6295L402.339 85.5419L402.254 85.5083C401.254 85.112 400.207 84.9139 399.115 84.9139C397.267 84.9139 395.802 85.5265 394.731 86.7581C393.66 87.9806 393.132 89.6852 393.132 91.8582C393.132 93.9753 393.641 95.6396 394.673 96.838C395.706 98.0382 397.133 98.6348 398.942 98.6348C400.246 98.6348 401.309 98.4297 402.125 98.0125L402.179 97.9846V97.9234V96.8207V96.6681L402.039 96.729C401.08 97.1467 400.04 97.356 398.92 97.356C397.529 97.356 396.456 96.8714 395.689 95.9075C394.918 94.932 394.527 93.5782 394.527 91.8343C394.527 89.9928 394.919 88.6001 395.688 87.6416L395.689 87.6413C396.455 86.6793 397.583 86.1927 399.092 86.1927C399.874 86.1927 400.8 86.3772 401.874 86.7505L401.973 86.785L402.003 86.6843L402.313 85.6295Z" fill="#fff" stroke="none" stroke-width="0.2"/>
</svg>
